# xmcd
#
# Track frame offsets:
#	150
#	14175
#	26325
#	40200
#	55200
#	69075
#	82950
#	99975
#	111525
#	123225
#	134325
#	150600
#	164250
#	174150
#	185100
#	197400
#	219075
#	232275
#	247050
#	260925
#
# Disc length: 3692 seconds
#
# Revision: 2
# Processed by: cddbd v1.5.2PL0 Copyright (c) Steve Scherf et al.
# Submitted via: EZCDAudioConverter 9.0.3.1
#
DISCID=180e6a14
DTITLE=Věra Martinová - Jako dřív (Zlatá kolekce)
DYEAR=2016
DGENRE=Country
TTITLE0=Malý dům nad skálou
TTITLE1=Zázračný housle
TTITLE2=Kůň, co vyhrál nejslavnější steeplechase
TTITLE3=Mý blues
TTITLE4=Strom vánoční
TTITLE5=Smutná holka
TTITLE6=Náruč planejch růží
TTITLE7=Čehý nebo hot
TTITLE8=Blanický rytíř
TTITLE9=Slunci je to jedno
TTITLE10=Já znám Tvý rána
TTITLE11=Jezdec z neznáma
TTITLE12=Všem příštím dnům
TTITLE13=Svou káru tlačíme každý sám
TTITLE14=Muzikant
TTITLE15=Prsten
TTITLE16=Sedmý pád
TTITLE17=Svět je plnej různejch řečí
TTITLE18=Jako dřív
TTITLE19=Přistávám
EXTD=
EXTT0=
EXTT1=
EXTT2=
EXTT3=
EXTT4=
EXTT5=
EXTT6=
EXTT7=
EXTT8=
EXTT9=
EXTT10=
EXTT11=
EXTT12=
EXTT13=
EXTT14=
EXTT15=
EXTT16=
EXTT17=
EXTT18=
EXTT19=
PLAYORDER=
